# MagicaVoxel @ Ephtracy

# group
o 

# material
mtllib Street3Way.mtl
usemtl palette

# normals
vn -1 0 0
vn 1 0 0
vn 0 0 1
vn 0 0 -1
vn 0 -1 0
vn 0 1 0

# texcoords
vt 0.00195313 0.5
vt 0.0214844 0.5
vt 0.958984 0.5
vt 0.974609 0.5
vt 0.986328 0.5
vt 0.994141 0.5

# verts
v -2 0 2
v -2 0 -2
v -2 0.1 1.5
v -2 0.1 1.3
v -2 0.2 2
v -2 0.2 1.5
v -2 0.2 1.4
v -2 0.2 1.3
v -2 0.2 0.6
v -2 0.2 0.5
v -2 0.2 -0.4
v -2 0.2 -0.5
v -2 0.2 -1.4
v -2 0.2 -1.5
v -2 0.2 -2
v -2 0.3 2
v -2 0.3 1.5
v -2 0.3 1.4
v -2 0.3 0.6
v -2 0.3 0.5
v -2 0.3 -0.4
v -2 0.3 -0.5
v -2 0.3 -1.4
v -2 0.3 -1.5
v -2 0.3 -2
v 1.5 0.2 2
v 1.5 0.2 1.9
v 1.5 0.2 1.5
v 1.5 0.2 -1.5
v 1.5 0.2 -1.9
v 1.5 0.2 -2
v 1.5 0.3 2
v 1.5 0.3 1.5
v 1.5 0.3 -1.5
v 1.5 0.3 -2
v -1.5 0.2 2
v -1.5 0.2 1.5
v -1.5 0.2 1.4
v -1.5 0.2 0.6
v -1.5 0.2 0.5
v -1.5 0.2 -0.4
v -1.5 0.2 -0.5
v -1.5 0.2 -1.4
v -1.5 0.2 -1.5
v -1.5 0.2 -2
v -1.5 0.3 2
v -1.5 0.3 1.5
v -1.5 0.3 1.4
v -1.5 0.3 0.6
v -1.5 0.3 0.5
v -1.5 0.3 -0.4
v -1.5 0.3 -0.5
v -1.5 0.3 -1.4
v -1.5 0.3 -1.5
v -1.5 0.3 -2
v 2 0 2
v 2 0 -2
v 2 0.1 1.5
v 2 0.1 1.4
v 2 0.1 1.3
v 2 0.1 1.2
v 2 0.1 0.9
v 2 0.1 0.8
v 2 0.1 0.5
v 2 0.1 0.4
v 2 0.1 0.2
v 2 0.1 0.0999999
v 2 0.1 -2.38419e-007
v 2 0.1 -0.1
v 2 0.1 -0.2
v 2 0.1 -0.3
v 2 0.1 -0.5
v 2 0.1 -0.6
v 2 0.1 -0.9
v 2 0.1 -1
v 2 0.1 -1.3
v 2 0.1 -1.4
v 2 0.1 -1.5
v 2 0.2 2
v 2 0.2 1.5
v 2 0.2 1.4
v 2 0.2 1.3
v 2 0.2 1.2
v 2 0.2 0.9
v 2 0.2 0.8
v 2 0.2 0.5
v 2 0.2 0.4
v 2 0.2 0.2
v 2 0.2 0.0999999
v 2 0.2 -2.38419e-007
v 2 0.2 -0.1
v 2 0.2 -0.2
v 2 0.2 -0.3
v 2 0.2 -0.5
v 2 0.2 -0.6
v 2 0.2 -0.9
v 2 0.2 -1
v 2 0.2 -1.3
v 2 0.2 -1.4
v 2 0.2 -1.5
v 2 0.2 -2
v 2 0.3 2
v 2 0.3 1.5
v 2 0.3 -1.5
v 2 0.3 -2
v -2 0 2
v -2 0.2 2
v -2 0.3 2
v -1.5 0.1 2
v -1.5 0.2 2
v -1.5 0.3 2
v -1.4 0.1 2
v -1.4 0.2 2
v -0.5 0.1 2
v -0.5 0.2 2
v -0.4 0.1 2
v -0.4 0.2 2
v -0.2 0.1 2
v -0.2 0.2 2
v -0.0999999 0.1 2
v -0.0999999 0.2 2
v 2.38419e-007 0.1 2
v 2.38419e-007 0.2 2
v 0.1 0.1 2
v 0.1 0.2 2
v 0.2 0.1 2
v 0.2 0.2 2
v 0.3 0.1 2
v 0.3 0.2 2
v 0.4 0.1 2
v 0.4 0.2 2
v 1.5 0.1 2
v 1.5 0.2 2
v 1.5 0.3 2
v 2 0 2
v 2 0.2 2
v 2 0.3 2
v 1.5 0.2 -1.5
v 1.5 0.3 -1.5
v 1.9 0.2 -1.5
v 2 0.2 -1.5
v 2 0.3 -1.5
v 1.5 0.2 1.5
v 1.5 0.3 1.5
v 2 0.2 1.5
v 2 0.3 1.5
v -2 0 -2
v -2 0.2 -2
v -2 0.3 -2
v -1.5 0.1 -2
v -1.5 0.2 -2
v -1.5 0.3 -2
v -1.4 0.1 -2
v -1.4 0.2 -2
v -1.3 0.1 -2
v -1.3 0.2 -2
v -1.2 0.1 -2
v -1.2 0.2 -2
v -1.1 0.1 -2
v -1.1 0.2 -2
v -1 0.1 -2
v -1 0.2 -2
v -0.9 0.1 -2
v -0.9 0.2 -2
v -0.8 0.1 -2
v -0.8 0.2 -2
v -0.7 0.1 -2
v -0.7 0.2 -2
v -0.6 0.1 -2
v -0.6 0.2 -2
v -0.5 0.1 -2
v -0.5 0.2 -2
v -0.4 0.1 -2
v -0.4 0.2 -2
v -0.3 0.1 -2
v -0.3 0.2 -2
v -0.2 0.1 -2
v -0.2 0.2 -2
v -0.0999999 0.1 -2
v -0.0999999 0.2 -2
v 2.38419e-007 0.1 -2
v 2.38419e-007 0.2 -2
v 0.1 0.1 -2
v 0.1 0.2 -2
v 0.2 0.1 -2
v 0.2 0.2 -2
v 0.3 0.1 -2
v 0.3 0.2 -2
v 0.5 0.1 -2
v 0.5 0.2 -2
v 0.6 0.1 -2
v 0.6 0.2 -2
v 0.7 0.1 -2
v 0.7 0.2 -2
v 0.8 0.1 -2
v 0.8 0.2 -2
v 1.5 0.1 -2
v 1.5 0.2 -2
v 1.5 0.3 -2
v 2 0 -2
v 2 0.2 -2
v 2 0.3 -2
v -2 0 2
v 2 0 2
v -2 0 -2
v 2 0 -2
v -1.5 0.2 2
v -1.4 0.2 2
v -0.5 0.2 2
v -0.4 0.2 2
v -0.2 0.2 2
v -0.0999999 0.2 2
v 2.38419e-007 0.2 2
v 0.1 0.2 2
v 0.2 0.2 2
v 0.3 0.2 2
v 0.4 0.2 2
v 1.5 0.2 2
v -1.4 0.2 1.9
v -1.3 0.2 1.9
v -1.2 0.2 1.9
v -1.1 0.2 1.9
v -1 0.2 1.9
v -0.9 0.2 1.9
v -0.8 0.2 1.9
v -0.7 0.2 1.9
v -0.6 0.2 1.9
v -0.5 0.2 1.9
v -0.4 0.2 1.9
v -0.3 0.2 1.9
v -0.2 0.2 1.9
v 0.4 0.2 1.9
v 0.5 0.2 1.9
v 0.6 0.2 1.9
v 0.7 0.2 1.9
v 0.8 0.2 1.9
v 0.9 0.2 1.9
v 1 0.2 1.9
v 1.1 0.2 1.9
v 1.2 0.2 1.9
v 1.3 0.2 1.9
v 1.4 0.2 1.9
v 1.5 0.2 1.9
v -1.5 0.2 1.5
v -1.4 0.2 1.5
v -1.3 0.2 1.5
v -1.2 0.2 1.5
v -1.1 0.2 1.5
v -1 0.2 1.5
v -0.9 0.2 1.5
v -0.8 0.2 1.5
v -0.7 0.2 1.5
v -0.6 0.2 1.5
v -0.5 0.2 1.5
v -0.4 0.2 1.5
v -0.3 0.2 1.5
v -0.2 0.2 1.5
v -0.0999999 0.2 1.5
v 2.38419e-007 0.2 1.5
v 0.1 0.2 1.5
v 0.2 0.2 1.5
v 0.3 0.2 1.5
v 0.4 0.2 1.5
v 0.5 0.2 1.5
v 0.6 0.2 1.5
v 0.7 0.2 1.5
v 0.8 0.2 1.5
v 0.9 0.2 1.5
v 1 0.2 1.5
v 1.1 0.2 1.5
v 1.2 0.2 1.5
v 1.3 0.2 1.5
v 1.4 0.2 1.5
v 1.5 0.2 1.5
v 2 0.2 1.5
v -1.5 0.2 1.4
v 2.38419e-007 0.2 1.4
v 0.1 0.2 1.4
v 1.5 0.2 1.4
v 1.9 0.2 1.4
v 2 0.2 1.4
v 1.5 0.2 1.3
v 1.9 0.2 1.3
v 2 0.2 1.3
v 1.5 0.2 1.2
v 1.9 0.2 1.2
v 2 0.2 1.2
v 1.5 0.2 1.1
v 1.9 0.2 1.1
v 1.5 0.2 1
v 1.9 0.2 1
v 1.5 0.2 0.9
v 1.9 0.2 0.9
v 2 0.2 0.9
v 1.5 0.2 0.8
v 1.9 0.2 0.8
v 2 0.2 0.8
v 1.5 0.2 0.7
v 1.9 0.2 0.7
v -1.5 0.2 0.6
v 1.5 0.2 0.6
v 1.9 0.2 0.6
v -1.5 0.2 0.5
v 1.5 0.2 0.5
v 1.9 0.2 0.5
v 2 0.2 0.5
v 1.5 0.2 0.4
v 1.9 0.2 0.4
v 2 0.2 0.4
v 1.5 0.2 0.3
v 1.9 0.2 0.3
v 1.5 0.2 0.2
v 1.9 0.2 0.2
v 2 0.2 0.2
v 1.5 0.2 0.0999999
v 2 0.2 0.0999999
v 1.4 0.2 -2.38419e-007
v 1.5 0.2 -2.38419e-007
v 2 0.2 -2.38419e-007
v 1.4 0.2 -0.1
v 1.5 0.2 -0.1
v 2 0.2 -0.1
v 1.5 0.2 -0.2
v 2 0.2 -0.2
v 1.5 0.2 -0.3
v 1.9 0.2 -0.3
v 2 0.2 -0.3
v -1.5 0.2 -0.4
v 1.5 0.2 -0.4
v 1.9 0.2 -0.4
v -1.5 0.2 -0.5
v 1.5 0.2 -0.5
v 1.9 0.2 -0.5
v 2 0.2 -0.5
v 1.5 0.2 -0.6
v 1.9 0.2 -0.6
v 2 0.2 -0.6
v 1.5 0.2 -0.7
v 1.9 0.2 -0.7
v 1.5 0.2 -0.8
v 1.9 0.2 -0.8
v 1.5 0.2 -0.9
v 1.9 0.2 -0.9
v 2 0.2 -0.9
v 1.5 0.2 -1
v 1.9 0.2 -1
v 2 0.2 -1
v 1.5 0.2 -1.1
v 1.9 0.2 -1.1
v 1.5 0.2 -1.2
v 1.9 0.2 -1.2
v 1.5 0.2 -1.3
v 1.9 0.2 -1.3
v 2 0.2 -1.3
v -1.5 0.2 -1.4
v 2.38419e-007 0.2 -1.4
v 0.1 0.2 -1.4
v 1.5 0.2 -1.4
v 1.9 0.2 -1.4
v 2 0.2 -1.4
v -1.5 0.2 -1.5
v -1.4 0.2 -1.5
v -1.3 0.2 -1.5
v -1.2 0.2 -1.5
v -1.1 0.2 -1.5
v -1 0.2 -1.5
v -0.9 0.2 -1.5
v -0.8 0.2 -1.5
v -0.7 0.2 -1.5
v -0.6 0.2 -1.5
v -0.5 0.2 -1.5
v -0.4 0.2 -1.5
v -0.3 0.2 -1.5
v -0.2 0.2 -1.5
v -0.0999999 0.2 -1.5
v 2.38419e-007 0.2 -1.5
v 0.1 0.2 -1.5
v 0.2 0.2 -1.5
v 0.3 0.2 -1.5
v 0.4 0.2 -1.5
v 0.5 0.2 -1.5
v 0.6 0.2 -1.5
v 0.7 0.2 -1.5
v 0.8 0.2 -1.5
v 0.9 0.2 -1.5
v 1 0.2 -1.5
v 1.1 0.2 -1.5
v 1.2 0.2 -1.5
v 1.3 0.2 -1.5
v 1.4 0.2 -1.5
v 1.5 0.2 -1.5
v 1.9 0.2 -1.5
v 2 0.2 -1.5
v -0.3 0.2 -1.6
v -0.2 0.2 -1.6
v 0.3 0.2 -1.9
v 0.4 0.2 -1.9
v 0.5 0.2 -1.9
v 0.6 0.2 -1.9
v 0.7 0.2 -1.9
v 0.8 0.2 -1.9
v 0.9 0.2 -1.9
v 1 0.2 -1.9
v 1.1 0.2 -1.9
v 1.2 0.2 -1.9
v 1.3 0.2 -1.9
v 1.4 0.2 -1.9
v 1.5 0.2 -1.9
v -1.5 0.2 -2
v -1.4 0.2 -2
v -1.3 0.2 -2
v -1.2 0.2 -2
v -1.1 0.2 -2
v -1 0.2 -2
v -0.9 0.2 -2
v -0.8 0.2 -2
v -0.7 0.2 -2
v -0.6 0.2 -2
v -0.5 0.2 -2
v -0.4 0.2 -2
v -0.3 0.2 -2
v -0.2 0.2 -2
v -0.0999999 0.2 -2
v 2.38419e-007 0.2 -2
v 0.1 0.2 -2
v 0.2 0.2 -2
v 0.3 0.2 -2
v 0.5 0.2 -2
v 0.6 0.2 -2
v 0.7 0.2 -2
v 0.8 0.2 -2
v 1.5 0.2 -2
v -2 0.3 2
v -1.5 0.3 2
v 1.5 0.3 2
v 2 0.3 2
v -2 0.3 1.5
v -1.5 0.3 1.5
v 1.5 0.3 1.5
v 2 0.3 1.5
v -2 0.3 1.4
v -1.5 0.3 1.4
v -2 0.3 0.6
v -1.5 0.3 0.6
v -2 0.3 0.5
v -1.5 0.3 0.5
v -2 0.3 -0.4
v -1.5 0.3 -0.4
v -2 0.3 -0.5
v -1.5 0.3 -0.5
v -2 0.3 -1.4
v -1.5 0.3 -1.4
v -2 0.3 -1.5
v -1.5 0.3 -1.5
v 1.5 0.3 -1.5
v 2 0.3 -1.5
v -2 0.3 -2
v -1.5 0.3 -2
v 1.5 0.3 -2
v 2 0.3 -2

# faces
f 3/6/1 2/6/1 1/6/1
f 4/6/1 2/6/1 3/6/1
f 5/6/1 3/6/1 1/6/1
f 6/1/1 4/1/1 3/1/1
f 6/6/1 3/6/1 5/6/1
f 7/1/1 4/1/1 6/1/1
f 8/6/1 2/6/1 4/6/1
f 8/1/1 4/1/1 7/1/1
f 9/6/1 2/6/1 8/6/1
f 10/6/1 2/6/1 9/6/1
f 11/6/1 2/6/1 10/6/1
f 12/6/1 2/6/1 11/6/1
f 13/6/1 2/6/1 12/6/1
f 14/6/1 2/6/1 13/6/1
f 15/6/1 2/6/1 14/6/1
f 16/4/1 6/4/1 5/4/1
f 17/5/1 7/5/1 6/5/1
f 17/4/1 6/4/1 16/4/1
f 18/4/1 8/4/1 7/4/1
f 18/5/1 7/5/1 17/5/1
f 18/4/1 9/4/1 8/4/1
f 19/5/1 10/5/1 9/5/1
f 19/4/1 9/4/1 18/4/1
f 20/4/1 11/4/1 10/4/1
f 20/5/1 10/5/1 19/5/1
f 21/5/1 12/5/1 11/5/1
f 21/4/1 11/4/1 20/4/1
f 22/4/1 13/4/1 12/4/1
f 22/5/1 12/5/1 21/5/1
f 23/5/1 14/5/1 13/5/1
f 23/4/1 13/4/1 22/4/1
f 24/4/1 15/4/1 14/4/1
f 24/5/1 14/5/1 23/5/1
f 25/4/1 15/4/1 24/4/1
f 32/4/1 27/4/1 26/4/1
f 32/4/1 28/4/1 27/4/1
f 33/4/1 28/4/1 32/4/1
f 34/4/1 31/4/1 30/4/1
f 34/4/1 30/4/1 29/4/1
f 35/4/1 31/4/1 34/4/1
f 36/4/2 37/4/2 46/4/2
f 37/5/2 38/5/2 47/5/2
f 46/4/2 37/4/2 47/4/2
f 38/4/2 39/4/2 48/4/2
f 47/5/2 38/5/2 48/5/2
f 39/5/2 40/5/2 49/5/2
f 48/4/2 39/4/2 49/4/2
f 40/4/2 41/4/2 50/4/2
f 49/5/2 40/5/2 50/5/2
f 41/5/2 42/5/2 51/5/2
f 50/4/2 41/4/2 51/4/2
f 42/4/2 43/4/2 52/4/2
f 51/5/2 42/5/2 52/5/2
f 43/5/2 44/5/2 53/5/2
f 52/4/2 43/4/2 53/4/2
f 44/4/2 45/4/2 54/4/2
f 53/5/2 44/5/2 54/5/2
f 54/4/2 45/4/2 55/4/2
f 56/6/2 57/6/2 58/6/2
f 58/6/2 57/6/2 59/6/2
f 59/6/2 57/6/2 60/6/2
f 60/6/2 57/6/2 61/6/2
f 61/6/2 57/6/2 62/6/2
f 62/6/2 57/6/2 63/6/2
f 63/6/2 57/6/2 64/6/2
f 64/6/2 57/6/2 65/6/2
f 65/6/2 57/6/2 66/6/2
f 66/6/2 57/6/2 67/6/2
f 67/6/2 57/6/2 68/6/2
f 68/6/2 57/6/2 69/6/2
f 69/6/2 57/6/2 70/6/2
f 70/6/2 57/6/2 71/6/2
f 71/6/2 57/6/2 72/6/2
f 72/6/2 57/6/2 73/6/2
f 73/6/2 57/6/2 74/6/2
f 74/6/2 57/6/2 75/6/2
f 75/6/2 57/6/2 76/6/2
f 76/6/2 57/6/2 77/6/2
f 77/6/2 57/6/2 78/6/2
f 56/6/2 58/6/2 79/6/2
f 58/3/2 59/3/2 80/3/2
f 79/6/2 58/6/2 80/6/2
f 59/1/2 60/1/2 81/1/2
f 80/3/2 59/3/2 81/3/2
f 60/3/2 61/3/2 82/3/2
f 81/1/2 60/1/2 82/1/2
f 61/1/2 62/1/2 83/1/2
f 82/3/2 61/3/2 83/3/2
f 62/3/2 63/3/2 84/3/2
f 83/1/2 62/1/2 84/1/2
f 63/1/2 64/1/2 85/1/2
f 84/3/2 63/3/2 85/3/2
f 64/3/2 65/3/2 86/3/2
f 85/1/2 64/1/2 86/1/2
f 65/1/2 66/1/2 87/1/2
f 86/3/2 65/3/2 87/3/2
f 66/6/2 67/6/2 88/6/2
f 87/1/2 66/1/2 88/1/2
f 67/2/2 68/2/2 89/2/2
f 88/6/2 67/6/2 89/6/2
f 68/6/2 69/6/2 90/6/2
f 89/2/2 68/2/2 90/2/2
f 69/2/2 70/2/2 91/2/2
f 90/6/2 69/6/2 91/6/2
f 70/6/2 71/6/2 92/6/2
f 91/2/2 70/2/2 92/2/2
f 71/1/2 72/1/2 93/1/2
f 92/6/2 71/6/2 93/6/2
f 72/3/2 73/3/2 94/3/2
f 93/1/2 72/1/2 94/1/2
f 73/1/2 74/1/2 95/1/2
f 94/3/2 73/3/2 95/3/2
f 74/3/2 75/3/2 96/3/2
f 95/1/2 74/1/2 96/1/2
f 75/1/2 76/1/2 97/1/2
f 96/3/2 75/3/2 97/3/2
f 76/3/2 77/3/2 98/3/2
f 97/1/2 76/1/2 98/1/2
f 77/1/2 78/1/2 99/1/2
f 98/3/2 77/3/2 99/3/2
f 78/6/2 57/6/2 100/6/2
f 99/1/2 78/1/2 100/1/2
f 100/6/2 57/6/2 101/6/2
f 79/4/2 80/4/2 102/4/2
f 102/4/2 80/4/2 103/4/2
f 100/4/2 101/4/2 104/4/2
f 104/4/2 101/4/2 105/4/2
f 109/6/3 107/6/3 106/6/3
f 110/4/3 108/4/3 107/4/3
f 110/6/3 107/6/3 109/6/3
f 111/4/3 108/4/3 110/4/3
f 112/6/3 109/6/3 106/6/3
f 112/3/3 110/3/3 109/3/3
f 113/3/3 110/3/3 112/3/3
f 114/6/3 112/6/3 106/6/3
f 114/1/3 113/1/3 112/1/3
f 115/1/3 113/1/3 114/1/3
f 116/6/3 114/6/3 106/6/3
f 116/3/3 115/3/3 114/3/3
f 117/3/3 115/3/3 116/3/3
f 118/6/3 116/6/3 106/6/3
f 118/1/3 117/1/3 116/1/3
f 119/1/3 117/1/3 118/1/3
f 120/6/3 118/6/3 106/6/3
f 120/6/3 119/6/3 118/6/3
f 121/6/3 119/6/3 120/6/3
f 122/6/3 120/6/3 106/6/3
f 122/2/3 121/2/3 120/2/3
f 123/2/3 121/2/3 122/2/3
f 124/6/3 122/6/3 106/6/3
f 124/6/3 123/6/3 122/6/3
f 125/6/3 123/6/3 124/6/3
f 126/6/3 124/6/3 106/6/3
f 126/2/3 125/2/3 124/2/3
f 127/2/3 125/2/3 126/2/3
f 128/6/3 126/6/3 106/6/3
f 128/6/3 127/6/3 126/6/3
f 129/6/3 127/6/3 128/6/3
f 130/6/3 128/6/3 106/6/3
f 130/3/3 129/3/3 128/3/3
f 131/3/3 129/3/3 130/3/3
f 132/6/3 130/6/3 106/6/3
f 132/1/3 131/1/3 130/1/3
f 133/1/3 131/1/3 132/1/3
f 135/6/3 133/6/3 132/6/3
f 135/6/3 132/6/3 106/6/3
f 136/4/3 134/4/3 133/4/3
f 136/6/3 133/6/3 135/6/3
f 137/4/3 134/4/3 136/4/3
f 140/4/3 139/4/3 138/4/3
f 141/4/3 139/4/3 140/4/3
f 142/4/3 139/4/3 141/4/3
f 143/4/4 144/4/4 145/4/4
f 145/4/4 144/4/4 146/4/4
f 147/6/4 148/6/4 150/6/4
f 148/4/4 149/4/4 151/4/4
f 150/6/4 148/6/4 151/6/4
f 151/4/4 149/4/4 152/4/4
f 147/6/4 150/6/4 153/6/4
f 150/1/4 151/1/4 153/1/4
f 153/1/4 151/1/4 154/1/4
f 147/6/4 153/6/4 155/6/4
f 153/6/4 154/6/4 155/6/4
f 155/6/4 154/6/4 156/6/4
f 147/6/4 155/6/4 157/6/4
f 155/1/4 156/1/4 157/1/4
f 157/1/4 156/1/4 158/1/4
f 147/6/4 157/6/4 159/6/4
f 157/6/4 158/6/4 159/6/4
f 159/6/4 158/6/4 160/6/4
f 147/6/4 159/6/4 161/6/4
f 159/1/4 160/1/4 161/1/4
f 161/1/4 160/1/4 162/1/4
f 147/6/4 161/6/4 163/6/4
f 161/6/4 162/6/4 163/6/4
f 163/6/4 162/6/4 164/6/4
f 147/6/4 163/6/4 165/6/4
f 163/1/4 164/1/4 165/1/4
f 165/1/4 164/1/4 166/1/4
f 147/6/4 165/6/4 167/6/4
f 165/6/4 166/6/4 167/6/4
f 167/6/4 166/6/4 168/6/4
f 147/6/4 167/6/4 169/6/4
f 167/1/4 168/1/4 169/1/4
f 169/1/4 168/1/4 170/1/4
f 147/6/4 169/6/4 171/6/4
f 169/6/4 170/6/4 171/6/4
f 171/6/4 170/6/4 172/6/4
f 147/6/4 171/6/4 173/6/4
f 171/1/4 172/1/4 173/1/4
f 173/1/4 172/1/4 174/1/4
f 147/6/4 173/6/4 175/6/4
f 173/6/4 174/6/4 175/6/4
f 175/6/4 174/6/4 176/6/4
f 147/6/4 175/6/4 177/6/4
f 175/1/4 176/1/4 177/1/4
f 177/1/4 176/1/4 178/1/4
f 147/6/4 177/6/4 179/6/4
f 177/6/4 178/6/4 179/6/4
f 179/6/4 178/6/4 180/6/4
f 147/6/4 179/6/4 181/6/4
f 179/2/4 180/2/4 181/2/4
f 181/2/4 180/2/4 182/2/4
f 147/6/4 181/6/4 183/6/4
f 181/6/4 182/6/4 183/6/4
f 183/6/4 182/6/4 184/6/4
f 147/6/4 183/6/4 185/6/4
f 183/2/4 184/2/4 185/2/4
f 185/2/4 184/2/4 186/2/4
f 147/6/4 185/6/4 187/6/4
f 185/6/4 186/6/4 187/6/4
f 187/6/4 186/6/4 188/6/4
f 147/6/4 187/6/4 189/6/4
f 187/1/4 188/1/4 189/1/4
f 189/1/4 188/1/4 190/1/4
f 147/6/4 189/6/4 191/6/4
f 189/3/4 190/3/4 191/3/4
f 191/3/4 190/3/4 192/3/4
f 147/6/4 191/6/4 193/6/4
f 191/1/4 192/1/4 193/1/4
f 193/1/4 192/1/4 194/1/4
f 147/6/4 193/6/4 195/6/4
f 193/3/4 194/3/4 195/3/4
f 195/3/4 194/3/4 196/3/4
f 147/6/4 195/6/4 197/6/4
f 195/1/4 196/1/4 197/1/4
f 197/1/4 196/1/4 198/1/4
f 197/6/4 198/6/4 200/6/4
f 147/6/4 197/6/4 200/6/4
f 198/4/4 199/4/4 201/4/4
f 200/6/4 198/6/4 201/6/4
f 201/4/4 199/4/4 202/4/4
f 205/6/5 204/6/5 203/6/5
f 206/6/5 204/6/5 205/6/5
f 207/3/6 208/3/6 219/3/6
f 208/1/6 209/1/6 219/1/6
f 219/1/6 209/1/6 220/1/6
f 220/1/6 209/1/6 221/1/6
f 221/1/6 209/1/6 222/1/6
f 222/1/6 209/1/6 223/1/6
f 223/1/6 209/1/6 224/1/6
f 224/1/6 209/1/6 225/1/6
f 225/1/6 209/1/6 226/1/6
f 226/1/6 209/1/6 227/1/6
f 209/3/6 210/3/6 228/3/6
f 227/1/6 209/1/6 228/1/6
f 210/1/6 211/1/6 229/1/6
f 228/3/6 210/3/6 229/3/6
f 229/1/6 211/1/6 230/1/6
f 211/6/6 212/6/6 231/6/6
f 230/1/6 211/1/6 231/1/6
f 217/1/6 218/1/6 232/1/6
f 216/3/6 217/3/6 232/3/6
f 232/1/6 218/1/6 233/1/6
f 233/1/6 218/1/6 234/1/6
f 234/1/6 218/1/6 235/1/6
f 235/1/6 218/1/6 236/1/6
f 236/1/6 218/1/6 237/1/6
f 237/1/6 218/1/6 238/1/6
f 238/1/6 218/1/6 239/1/6
f 239/1/6 218/1/6 240/1/6
f 240/1/6 218/1/6 241/1/6
f 241/1/6 218/1/6 242/1/6
f 242/1/6 218/1/6 243/1/6
f 207/3/6 219/3/6 244/3/6
f 219/6/6 220/6/6 245/6/6
f 244/3/6 219/3/6 245/3/6
f 220/3/6 221/3/6 246/3/6
f 245/6/6 220/6/6 246/6/6
f 221/6/6 222/6/6 247/6/6
f 246/3/6 221/3/6 247/3/6
f 222/3/6 223/3/6 248/3/6
f 247/6/6 222/6/6 248/6/6
f 223/6/6 224/6/6 249/6/6
f 248/3/6 223/3/6 249/3/6
f 224/3/6 225/3/6 250/3/6
f 249/6/6 224/6/6 250/6/6
f 225/6/6 226/6/6 251/6/6
f 250/3/6 225/3/6 251/3/6
f 226/3/6 227/3/6 252/3/6
f 251/6/6 226/6/6 252/6/6
f 227/6/6 228/6/6 253/6/6
f 252/3/6 227/3/6 253/3/6
f 228/3/6 229/3/6 254/3/6
f 253/6/6 228/6/6 254/6/6
f 229/6/6 230/6/6 255/6/6
f 254/3/6 229/3/6 255/3/6
f 230/3/6 231/3/6 256/3/6
f 255/6/6 230/6/6 256/6/6
f 231/6/6 212/6/6 257/6/6
f 256/3/6 231/3/6 257/3/6
f 212/2/6 213/2/6 258/2/6
f 257/6/6 212/6/6 258/6/6
f 213/6/6 214/6/6 259/6/6
f 258/2/6 213/2/6 259/2/6
f 214/2/6 215/2/6 260/2/6
f 259/6/6 214/6/6 260/6/6
f 215/6/6 216/6/6 261/6/6
f 260/2/6 215/2/6 261/2/6
f 216/3/6 232/3/6 262/3/6
f 261/6/6 216/6/6 262/6/6
f 232/6/6 233/6/6 263/6/6
f 262/3/6 232/3/6 263/3/6
f 233/3/6 234/3/6 264/3/6
f 263/6/6 233/6/6 264/6/6
f 234/6/6 235/6/6 265/6/6
f 264/3/6 234/3/6 265/3/6
f 235/3/6 236/3/6 266/3/6
f 265/6/6 235/6/6 266/6/6
f 236/6/6 237/6/6 267/6/6
f 266/3/6 236/3/6 267/3/6
f 237/3/6 238/3/6 268/3/6
f 267/6/6 237/6/6 268/6/6
f 238/6/6 239/6/6 269/6/6
f 268/3/6 238/3/6 269/3/6
f 239/3/6 240/3/6 270/3/6
f 269/6/6 239/6/6 270/6/6
f 240/6/6 241/6/6 271/6/6
f 270/3/6 240/3/6 271/3/6
f 241/3/6 242/3/6 272/3/6
f 271/6/6 241/6/6 272/6/6
f 242/6/6 243/6/6 273/6/6
f 272/3/6 242/3/6 273/3/6
f 273/6/6 243/6/6 274/6/6
f 255/6/6 256/6/6 276/6/6
f 254/6/6 255/6/6 276/6/6
f 250/6/6 251/6/6 276/6/6
f 251/6/6 252/6/6 276/6/6
f 253/6/6 254/6/6 276/6/6
f 256/6/6 257/6/6 276/6/6
f 257/6/6 258/6/6 276/6/6
f 258/6/6 259/6/6 276/6/6
f 244/6/6 245/6/6 276/6/6
f 245/6/6 246/6/6 276/6/6
f 246/6/6 247/6/6 276/6/6
f 247/6/6 248/6/6 276/6/6
f 248/6/6 249/6/6 276/6/6
f 249/6/6 250/6/6 276/6/6
f 252/6/6 253/6/6 276/6/6
f 259/2/6 260/2/6 277/2/6
f 276/6/6 259/6/6 277/6/6
f 272/6/6 273/6/6 278/6/6
f 277/2/6 260/2/6 278/2/6
f 271/6/6 272/6/6 278/6/6
f 260/6/6 261/6/6 278/6/6
f 261/6/6 262/6/6 278/6/6
f 262/6/6 263/6/6 278/6/6
f 263/6/6 264/6/6 278/6/6
f 264/6/6 265/6/6 278/6/6
f 265/6/6 266/6/6 278/6/6
f 270/6/6 271/6/6 278/6/6
f 273/6/6 274/6/6 278/6/6
f 269/6/6 270/6/6 278/6/6
f 266/6/6 267/6/6 278/6/6
f 267/6/6 268/6/6 278/6/6
f 268/6/6 269/6/6 278/6/6
f 274/3/6 275/3/6 279/3/6
f 278/6/6 274/6/6 279/6/6
f 279/3/6 275/3/6 280/3/6
f 280/3/6 275/3/6 281/3/6
f 277/6/6 278/6/6 282/6/6
f 276/6/6 277/6/6 282/6/6
f 278/6/6 279/6/6 282/6/6
f 279/6/6 280/6/6 282/6/6
f 280/1/6 281/1/6 283/1/6
f 282/6/6 280/6/6 283/6/6
f 283/1/6 281/1/6 284/1/6
f 276/6/6 282/6/6 285/6/6
f 282/3/6 283/3/6 285/3/6
f 283/3/6 284/3/6 285/3/6
f 285/3/6 284/3/6 286/3/6
f 286/3/6 284/3/6 287/3/6
f 276/6/6 285/6/6 288/6/6
f 285/6/6 286/6/6 288/6/6
f 286/1/6 287/1/6 289/1/6
f 288/6/6 286/6/6 289/6/6
f 276/6/6 288/6/6 290/6/6
f 288/3/6 289/3/6 290/3/6
f 289/1/6 287/1/6 291/1/6
f 290/3/6 289/3/6 291/3/6
f 276/6/6 290/6/6 292/6/6
f 290/6/6 291/6/6 292/6/6
f 291/1/6 287/1/6 293/1/6
f 292/6/6 291/6/6 293/6/6
f 293/1/6 287/1/6 294/1/6
f 276/6/6 292/6/6 295/6/6
f 292/3/6 293/3/6 295/3/6
f 293/3/6 294/3/6 295/3/6
f 295/3/6 294/3/6 296/3/6
f 296/3/6 294/3/6 297/3/6
f 276/6/6 295/6/6 298/6/6
f 295/6/6 296/6/6 298/6/6
f 296/1/6 297/1/6 299/1/6
f 298/6/6 296/6/6 299/6/6
f 276/6/6 298/6/6 300/6/6
f 298/3/6 299/3/6 301/3/6
f 300/6/6 298/6/6 301/6/6
f 299/1/6 297/1/6 302/1/6
f 301/3/6 299/3/6 302/3/6
f 300/6/6 301/6/6 303/6/6
f 301/6/6 302/6/6 303/6/6
f 303/6/6 302/6/6 304/6/6
f 302/1/6 297/1/6 305/1/6
f 304/6/6 302/6/6 305/6/6
f 305/1/6 297/1/6 306/1/6
f 303/6/6 304/6/6 307/6/6
f 304/3/6 305/3/6 307/3/6
f 305/3/6 306/3/6 307/3/6
f 307/3/6 306/3/6 308/3/6
f 308/3/6 306/3/6 309/3/6
f 303/6/6 307/6/6 310/6/6
f 307/6/6 308/6/6 310/6/6
f 308/1/6 309/1/6 311/1/6
f 310/6/6 308/6/6 311/6/6
f 303/6/6 310/6/6 312/6/6
f 310/3/6 311/3/6 312/3/6
f 311/1/6 309/1/6 313/1/6
f 312/3/6 311/3/6 313/3/6
f 313/1/6 309/1/6 314/1/6
f 303/6/6 312/6/6 315/6/6
f 312/6/6 313/6/6 315/6/6
f 313/6/6 314/6/6 315/6/6
f 315/6/6 314/6/6 316/6/6
f 303/6/6 315/6/6 317/6/6
f 315/2/6 316/2/6 318/2/6
f 317/6/6 315/6/6 318/6/6
f 318/2/6 316/2/6 319/2/6
f 303/6/6 317/6/6 320/6/6
f 317/2/6 318/2/6 320/2/6
f 318/6/6 319/6/6 321/6/6
f 320/2/6 318/2/6 321/2/6
f 321/6/6 319/6/6 322/6/6
f 320/6/6 321/6/6 323/6/6
f 321/2/6 322/2/6 323/2/6
f 323/2/6 322/2/6 324/2/6
f 320/6/6 323/6/6 325/6/6
f 323/6/6 324/6/6 325/6/6
f 325/6/6 324/6/6 326/6/6
f 326/6/6 324/6/6 327/6/6
f 303/6/6 320/6/6 328/6/6
f 320/6/6 325/6/6 328/6/6
f 325/3/6 326/3/6 329/3/6
f 328/6/6 325/6/6 329/6/6
f 326/1/6 327/1/6 330/1/6
f 329/3/6 326/3/6 330/3/6
f 328/6/6 329/6/6 331/6/6
f 329/6/6 330/6/6 331/6/6
f 331/6/6 330/6/6 332/6/6
f 330/1/6 327/1/6 333/1/6
f 332/6/6 330/6/6 333/6/6
f 333/1/6 327/1/6 334/1/6
f 331/6/6 332/6/6 335/6/6
f 332/3/6 333/3/6 335/3/6
f 333/3/6 334/3/6 335/3/6
f 335/3/6 334/3/6 336/3/6
f 336/3/6 334/3/6 337/3/6
f 331/6/6 335/6/6 338/6/6
f 335/6/6 336/6/6 338/6/6
f 336/1/6 337/1/6 339/1/6
f 338/6/6 336/6/6 339/6/6
f 331/6/6 338/6/6 340/6/6
f 338/3/6 339/3/6 340/3/6
f 339/1/6 337/1/6 341/1/6
f 340/3/6 339/3/6 341/3/6
f 331/6/6 340/6/6 342/6/6
f 340/6/6 341/6/6 342/6/6
f 341/1/6 337/1/6 343/1/6
f 342/6/6 341/6/6 343/6/6
f 343/1/6 337/1/6 344/1/6
f 331/6/6 342/6/6 345/6/6
f 342/3/6 343/3/6 345/3/6
f 343/3/6 344/3/6 345/3/6
f 345/3/6 344/3/6 346/3/6
f 346/3/6 344/3/6 347/3/6
f 331/6/6 345/6/6 348/6/6
f 345/6/6 346/6/6 348/6/6
f 346/1/6 347/1/6 349/1/6
f 348/6/6 346/6/6 349/6/6
f 331/6/6 348/6/6 350/6/6
f 348/3/6 349/3/6 350/3/6
f 349/1/6 347/1/6 351/1/6
f 350/3/6 349/3/6 351/3/6
f 331/6/6 350/6/6 352/6/6
f 350/6/6 351/6/6 352/6/6
f 351/1/6 347/1/6 353/1/6
f 352/6/6 351/6/6 353/6/6
f 353/1/6 347/1/6 354/1/6
f 331/6/6 352/6/6 355/6/6
f 355/6/6 352/6/6 356/6/6
f 356/6/6 352/6/6 357/6/6
f 352/3/6 353/3/6 358/3/6
f 357/6/6 352/6/6 358/6/6
f 353/3/6 354/3/6 358/3/6
f 358/3/6 354/3/6 359/3/6
f 359/3/6 354/3/6 360/3/6
f 355/6/6 356/6/6 361/6/6
f 361/6/6 356/6/6 362/6/6
f 362/6/6 356/6/6 363/6/6
f 363/6/6 356/6/6 364/6/6
f 364/6/6 356/6/6 365/6/6
f 365/6/6 356/6/6 366/6/6
f 366/6/6 356/6/6 367/6/6
f 367/6/6 356/6/6 368/6/6
f 368/6/6 356/6/6 369/6/6
f 369/6/6 356/6/6 370/6/6
f 370/6/6 356/6/6 371/6/6
f 371/6/6 356/6/6 372/6/6
f 372/6/6 356/6/6 373/6/6
f 373/6/6 356/6/6 374/6/6
f 374/6/6 356/6/6 375/6/6
f 356/2/6 357/2/6 376/2/6
f 375/6/6 356/6/6 376/6/6
f 357/6/6 358/6/6 377/6/6
f 376/2/6 357/2/6 377/2/6
f 358/6/6 359/6/6 377/6/6
f 377/6/6 359/6/6 378/6/6
f 378/6/6 359/6/6 379/6/6
f 379/6/6 359/6/6 380/6/6
f 380/6/6 359/6/6 381/6/6
f 381/6/6 359/6/6 382/6/6
f 382/6/6 359/6/6 383/6/6
f 383/6/6 359/6/6 384/6/6
f 384/6/6 359/6/6 385/6/6
f 385/6/6 359/6/6 386/6/6
f 386/6/6 359/6/6 387/6/6
f 387/6/6 359/6/6 388/6/6
f 388/6/6 359/6/6 389/6/6
f 389/6/6 359/6/6 390/6/6
f 390/6/6 359/6/6 391/6/6
f 359/1/6 360/1/6 392/1/6
f 391/6/6 359/6/6 392/6/6
f 392/1/6 360/1/6 393/1/6
f 373/3/6 374/3/6 394/3/6
f 372/6/6 373/6/6 394/6/6
f 374/6/6 375/6/6 395/6/6
f 394/3/6 374/3/6 395/3/6
f 378/6/6 379/6/6 396/6/6
f 379/3/6 380/3/6 396/3/6
f 380/6/6 381/6/6 397/6/6
f 396/3/6 380/3/6 397/3/6
f 381/3/6 382/3/6 398/3/6
f 397/6/6 381/6/6 398/6/6
f 382/6/6 383/6/6 399/6/6
f 398/3/6 382/3/6 399/3/6
f 383/3/6 384/3/6 400/3/6
f 399/6/6 383/6/6 400/6/6
f 384/6/6 385/6/6 401/6/6
f 400/3/6 384/3/6 401/3/6
f 385/3/6 386/3/6 402/3/6
f 401/6/6 385/6/6 402/6/6
f 386/6/6 387/6/6 403/6/6
f 402/3/6 386/3/6 403/3/6
f 387/3/6 388/3/6 404/3/6
f 403/6/6 387/6/6 404/6/6
f 388/6/6 389/6/6 405/6/6
f 404/3/6 388/3/6 405/3/6
f 389/3/6 390/3/6 406/3/6
f 405/6/6 389/6/6 406/6/6
f 390/6/6 391/6/6 407/6/6
f 406/3/6 390/3/6 407/3/6
f 407/6/6 391/6/6 408/6/6
f 361/1/6 362/1/6 409/1/6
f 362/6/6 363/6/6 410/6/6
f 409/1/6 362/1/6 410/1/6
f 363/1/6 364/1/6 411/1/6
f 410/6/6 363/6/6 411/6/6
f 364/6/6 365/6/6 412/6/6
f 411/1/6 364/1/6 412/1/6
f 365/1/6 366/1/6 413/1/6
f 412/6/6 365/6/6 413/6/6
f 366/6/6 367/6/6 414/6/6
f 413/1/6 366/1/6 414/1/6
f 367/1/6 368/1/6 415/1/6
f 414/6/6 367/6/6 415/6/6
f 368/6/6 369/6/6 416/6/6
f 415/1/6 368/1/6 416/1/6
f 369/1/6 370/1/6 417/1/6
f 416/6/6 369/6/6 417/6/6
f 370/6/6 371/6/6 418/6/6
f 417/1/6 370/1/6 418/1/6
f 371/1/6 372/1/6 419/1/6
f 418/6/6 371/6/6 419/6/6
f 372/6/6 394/6/6 420/6/6
f 419/1/6 372/1/6 420/1/6
f 394/1/6 395/1/6 421/1/6
f 420/6/6 394/6/6 421/6/6
f 395/6/6 375/6/6 422/6/6
f 421/1/6 395/1/6 422/1/6
f 375/2/6 376/2/6 423/2/6
f 422/6/6 375/6/6 423/6/6
f 376/6/6 377/6/6 424/6/6
f 423/2/6 376/2/6 424/2/6
f 377/2/6 378/2/6 425/2/6
f 424/6/6 377/6/6 425/6/6
f 378/6/6 396/6/6 426/6/6
f 425/2/6 378/2/6 426/2/6
f 396/1/6 397/1/6 427/1/6
f 426/6/6 396/6/6 427/6/6
f 397/1/6 398/1/6 427/1/6
f 398/3/6 399/3/6 428/3/6
f 427/1/6 398/1/6 428/1/6
f 399/1/6 400/1/6 429/1/6
f 428/3/6 399/3/6 429/3/6
f 400/3/6 401/3/6 430/3/6
f 429/1/6 400/1/6 430/1/6
f 405/1/6 406/1/6 431/1/6
f 430/3/6 401/3/6 431/3/6
f 404/1/6 405/1/6 431/1/6
f 406/1/6 407/1/6 431/1/6
f 403/1/6 404/1/6 431/1/6
f 402/1/6 403/1/6 431/1/6
f 401/1/6 402/1/6 431/1/6
f 407/1/6 408/1/6 431/1/6
f 431/1/6 408/1/6 432/1/6
f 433/4/6 434/4/6 437/4/6
f 437/4/6 434/4/6 438/4/6
f 435/4/6 436/4/6 439/4/6
f 439/4/6 436/4/6 440/4/6
f 437/5/6 438/5/6 441/5/6
f 441/5/6 438/5/6 442/5/6
f 441/4/6 442/4/6 443/4/6
f 443/4/6 442/4/6 444/4/6
f 443/5/6 444/5/6 445/5/6
f 445/5/6 444/5/6 446/5/6
f 445/4/6 446/4/6 447/4/6
f 447/4/6 446/4/6 448/4/6
f 447/5/6 448/5/6 449/5/6
f 449/5/6 448/5/6 450/5/6
f 449/4/6 450/4/6 451/4/6
f 451/4/6 450/4/6 452/4/6
f 451/5/6 452/5/6 453/5/6
f 453/5/6 452/5/6 454/5/6
f 453/4/6 454/4/6 457/4/6
f 457/4/6 454/4/6 458/4/6
f 455/4/6 456/4/6 459/4/6
f 459/4/6 456/4/6 460/4/6
